# xmcd
#
# Track frame offsets:
#	150
#	19034
#	47911
#	63031
#	78688
#	98588
#	112090
#	130234
#	158480
#	177055
#	197856
#	217032
#	234265
#	247756
#	268606
#	293874
#
# Disc length: 4197 seconds
#
# Revision: 1
# Processed by: cddbd v1.4PL0 Copyright (c) Steve Scherf et al.
# Submitted via: audiograbber 1.82.00
#
DISCID=d6106310
DTITLE=Various Artist - The Blues Matters Sampler - Volume 1
DYEAR=2002
DGENRE=Blues
TTITLE0=Lights Out By Nine - Feel Like Robert Johnson
TTITLE1=Danny Bryants' Red Eye Band - Always With Me
TTITLE2=Tin Pan Alley - Blues Is A Feeling
TTITLE3=Mo'Indigo - Trouble Every Day
TTITLE4=Dr. Ika - Go My Train Go
TTITLE5=Riche Milton and The Lowdown - Love Is A Crime
TTITLE6=Speakeasy Blues Band - Don't Mess With Me
TTITLE7=The Roach Twins Band - Blues For Roy
TTITLE8=SwampNobs - Fat Man's Lament
TTITLE9=Reconsider - Right Here [Live]
TTITLE10=Badge - Leave You Baby
TTITLE11=Parchman Farm - Down In Mississippi
TTITLE12=Stir Crazy - The Tease
TTITLE13=Bluesline - Travellin'
TTITLE14=Big Girls Blues - I Won't Be The One
TTITLE15=Dr. Ika With Danny Bryant - After The Rain
EXTD=
EXTT0=
EXTT1=
EXTT2=
EXTT3=
EXTT4=
EXTT5=
EXTT6=
EXTT7=
EXTT8=
EXTT9=
EXTT10=
EXTT11=
EXTT12=
EXTT13=
EXTT14=
EXTT15=
PLAYORDER=
